<svg xmlns="http://www.w3.org/2000/svg" version="1.1" xmlns:xlink="http://www.w3.org/1999/xlink" xmlns:svgjs="http://svgjs.dev/svgjs" width="1000" height="750" viewBox="0 0 1000 750"><rect width="1000" height="750" fill="#010536"></rect><g transform="matrix(0.834,0,0,0.834,82.49454545454546,115.4193570850203)"><svg viewBox="0 0 396 247" data-background-color="#010536" preserveAspectRatio="xMidYMid meet" height="623" width="1000" xmlns="http://www.w3.org/2000/svg" xmlns:xlink="http://www.w3.org/1999/xlink"><g id="tight-bounds" transform="matrix(1,0,0,1,0.2400000000000091,-0.09999999999999432)"><svg viewBox="0 0 395.52 247.2" height="247.2" width="395.52"><g><svg></svg></g><g><svg viewBox="0 0 395.52 247.2" height="247.2" width="395.52"><g transform="matrix(1,0,0,1,117.21835505001809,47.215199999999996)"><svg viewBox="0 0 161.0832898999638 152.7696" height="152.7696" width="161.0832898999638"><g><svg viewBox="0 0 244.43135999999998 231.81598238927194" height="152.7696" width="161.0832898999638"><g transform="matrix(1,0,0,1,0,169.16489878580416)"><svg viewBox="0 0 244.43135999999998 62.65108360346777" height="62.65108360346777" width="244.43135999999998"><g id="textblocktransform"><svg viewBox="0 0 244.43135999999998 62.65108360346777" height="62.65108360346777" width="244.43135999999998" id="textblock"><g><svg viewBox="0 0 244.43135999999998 62.65108360346777" height="62.65108360346777" width="244.43135999999998"><g transform="matrix(1,0,0,1,0,0)"><svg width="244.43135999999998" viewBox="3.5 -33.95000076293945 132.63999938964844 34" height="62.65108360346777" data-palette-color="#fbfbf8"><path d="M3.5 0L3.5-33.85 9.45-33.85 9.45-4.5 22.1-4.5 22.1 0 3.5 0ZM25.6 0L25.6-33.85 45.7-33.85 45.7-29.35 31.55-29.35 31.55-19.9 43.2-19.9 42.45-15.35 31.55-15.35 31.55-4.5 46.45-4.5 46.45 0 25.6 0ZM47.5 0L60.5-33.85 65.2-33.85 78.25 0 71.9 0 68.8-8.85 56.6-8.85 53.4 0 47.5 0ZM58.2-13.25L67.25-13.25Q65.65-17.75 64.5-21.43 63.35-25.1 62.75-27.2L62.75-27.2Q62.05-24.95 60.9-21.3 59.75-17.65 58.2-13.25L58.2-13.25ZM81.49 0L81.49-33.85Q81.84-33.85 83.09-33.88 84.34-33.9 85.89-33.9 87.44-33.9 88.99-33.93 90.54-33.95 91.54-33.95L91.54-33.95Q97.74-33.95 100.59-31.53 103.44-29.1 103.44-24.7L103.44-24.7Q103.44-21.8 101.99-19.55 100.54-17.3 97.24-16.3L97.24-16.3Q98.64-15.5 99.74-14.1 100.84-12.7 101.89-10.68 102.94-8.65 104.04-5.98 105.14-3.3 106.59 0L106.59 0 100.14 0Q98.44-3.95 97.17-6.75 95.89-9.55 94.69-11.3 93.49-13.05 92.12-13.85 90.74-14.65 88.89-14.65L88.89-14.65 87.44-14.65 87.44 0 81.49 0ZM87.44-29.7L87.44-19 91.29-19Q94.09-19 95.62-20.25 97.14-21.5 97.14-23.95L97.14-23.95Q97.14-25.05 96.84-26.1 96.54-27.15 95.82-27.95 95.09-28.75 93.87-29.23 92.64-29.7 90.79-29.7L90.79-29.7 87.44-29.7ZM130.34-16.15L130.19-33.85 136.14-33.85 136.14 0.05 131.19 0.05 119.79-17.75Q118.84-19.2 117.72-21.03 116.59-22.85 115.59-24.4L115.59-24.4Q115.74-22.8 115.87-21.05 115.99-19.3 115.99-17.7L115.99-17.7 116.14 0 110.19 0 110.19-33.95 114.84-33.95 126.59-16.35Q127.59-14.9 128.62-13.28 129.64-11.65 130.64-10.15L130.64-10.15Q130.54-11.75 130.44-13.38 130.34-15 130.34-16.15L130.34-16.15Z" opacity="1" transform="matrix(1,0,0,1,0,0)" fill="#fbfbf8" class="wordmark-text-0" data-fill-palette-color="primary" id="text-0"></path></svg></g></svg></g></svg></g></svg></g><g transform="matrix(1,0,0,1,52.42364781987017,0)"><svg viewBox="0 0 139.58406436025965 139.58406436025965" height="139.58406436025965" width="139.58406436025965"><g><svg></svg></g><g id="icon-0"><svg viewBox="0 0 139.58406436025965 139.58406436025965" height="139.58406436025965" width="139.58406436025965"><g><path d="M0 69.792c0-38.545 31.247-69.792 69.792-69.792 38.545 0 69.792 31.247 69.792 69.792 0 38.545-31.247 69.792-69.792 69.792-38.545 0-69.792-31.247-69.792-69.792zM69.792 133.934c35.425 0 64.142-28.717 64.142-64.142 0-35.425-28.717-64.142-64.142-64.142-35.425 0-64.142 28.717-64.142 64.142 0 35.425 28.717 64.142 64.142 64.142z" data-fill-palette-color="tertiary" fill="#fbfbf8" stroke="transparent"></path></g><g transform="matrix(1,0,0,1,30.235725092191842,41.78576356333977)"><svg viewBox="0 0 79.11261417587596 56.01253723358011" height="56.01253723358011" width="79.11261417587596"><g><svg xmlns="http://www.w3.org/2000/svg" xmlns:xlink="http://www.w3.org/1999/xlink" version="1.1" x="0" y="0" viewBox="25.69999885559082 31.300003051757812 38.70000457763672 27.39999771118164" enable-background="new 0 0 90 90" xml:space="preserve" height="56.01253723358011" width="79.11261417587596" class="icon-s-0" data-fill-palette-color="accent" id="s-0"><path d="M46.4 56.3c-0.4 0.2-0.9 0.4-1.4 0.4s-1-0.1-1.4-0.4l0 0-10.3-4.8v4.4c0 1.6 1.3 2.8 2.8 2.8h17.7c1.6 0 2.8-1.3 2.8-2.8V51L46.4 56.3 46.4 56.3z" fill="#ffff00" data-fill-palette-color="accent"></path><path d="M62.7 39.4L62.7 39.4l-0.1-0.1c-0.1-0.1-0.3-0.1-0.4-0.2l-15.8-7.4 0 0c-0.4-0.2-0.9-0.4-1.4-0.4s-1 0.1-1.4 0.4l0 0-16.3 8.5 0 0c-1 0.6-1.6 1.6-1.6 2.9s0.6 2.3 1.6 2.9l0 0 0.1 0.1c0.1 0.1 0.3 0.1 0.4 0.2l15.8 7.4 0 0C44 53.9 44.5 54 45 54s1-0.1 1.4-0.4l0 0 13.1-6.8v11.8h2.1V45.7l1.2-0.6 0 0c1-0.6 1.6-1.6 1.6-2.9S63.7 39.9 62.7 39.4z" fill="#ffff00" data-fill-palette-color="accent"></path></svg></g></svg></g></svg></g></svg></g><g></g></svg></g></svg></g><g><path d="M167.236 37.468A80.542 80.542 0 0 1 228.284 37.468L224.561 37.468A76.818 76.818 0 0 0 170.959 37.468L167.236 37.468M167.236 209.732A80.542 80.542 0 0 0 228.284 209.732L224.561 209.732A76.818 76.818 0 0 1 170.959 209.732L167.236 209.732" fill="#fbfbf8" stroke="transparent" data-fill-palette-color="tertiary"></path></g></svg></g><defs></defs></svg><rect width="395.52" height="247.2" fill="none" stroke="none" visibility="hidden"></rect></g></svg></g></svg>